<svg width="22" height="22" viewBox="0 0 22 22" fill="none" xmlns="http://www.w3.org/2000/svg">
<path fill-rule="evenodd" clip-rule="evenodd" d="M0 11C0 17.0751 4.92487 22 11 22C17.0751 22 22 17.0751 22 11C22 4.92487 17.0751 0 11 0C4.92487 0 0 4.92487 0 11ZM20.5806 11C20.5806 16.2912 16.2912 20.5806 11 20.5806C5.70876 20.5806 1.41935 16.2912 1.41935 11C1.41935 5.70876 5.70876 1.41935 11 1.41935C16.2912 1.41935 20.5806 5.70876 20.5806 11Z" fill="#EB5343"/>
<path d="M11.0074 5.67741C10.4054 5.67741 9.93555 6.01155 9.93555 6.6039C9.93555 8.41121 10.1411 11.0083 10.1411 12.8156C10.1411 13.2864 10.5376 13.4839 11.0074 13.4839C11.3598 13.4839 11.859 13.2864 11.859 12.8156C11.859 11.0083 12.0646 8.41126 12.0646 6.6039C12.0646 6.0116 11.5801 5.67741 11.0074 5.67741Z" fill="#EB5343"/>
<path d="M11.007 14.9032C10.3948 14.9032 9.93555 15.3871 9.93555 15.9677C9.93555 16.5345 10.3947 17.0322 11.007 17.0322C11.5775 17.0322 12.0646 16.5345 12.0646 15.9677C12.0646 15.3871 11.5775 14.9032 11.007 14.9032Z" fill="#EB5343"/>
</svg>
