<svg width="15" height="22" viewBox="0 0 15 22" fill="none" xmlns="http://www.w3.org/2000/svg">
<g id="Password">
<path id="Path" fill-rule="evenodd" clip-rule="evenodd" d="M3.89815 4.79787C3.89815 2.92661 5.38096 1.40426 7.20362 1.40426C9.02628 1.40426 10.5091 2.92661 10.5091 4.79787V6.53194C11.0033 6.74618 11.4524 6.99244 11.8769 7.27737V4.79787C11.8769 2.1523 9.78047 0 7.20362 0C4.62676 0 2.53036 2.1523 2.53036 4.79787V7.27732C2.95488 6.99244 3.40397 6.74618 3.87567 6.5413C3.88315 6.53812 3.89815 4.79787 3.89815 4.79787Z" fill="white"/>
<path id="Path_2" fill-rule="evenodd" clip-rule="evenodd" d="M0.0227661 14.6277C0.0227661 10.556 3.23774 7.25532 7.20362 7.25532C11.1695 7.25532 14.3845 10.556 14.3845 14.6277C14.3845 18.6993 11.1695 22 7.20362 22C3.23774 22 0.0227661 18.6993 0.0227661 14.6277ZM7.88751 17.5118V15.0048C8.4266 14.7419 8.79936 14.1779 8.79936 13.5244C8.79936 12.6196 8.08492 11.8861 7.20362 11.8861C6.32231 11.8861 5.60787 12.6196 5.60787 13.5244C5.60787 14.1779 5.98064 14.7419 6.51973 15.0048V17.5118H7.88751Z" fill="white"/>
</g>
</svg>
